<?xml version="1.0" encoding="UTF-8"?>
<svg xmlns="http://www.w3.org/2000/svg" version="1.1" viewBox="0 0 47.17 10.09">
  <defs>
    <style>
      .cls-1 {
        stroke: #4cb748;
      }

      .cls-1, .cls-2 {
        fill: none;
        stroke-miterlimit: 10;
        stroke-width: .65px;
      }

      .cls-3 {
        fill: #231f20;
      }

      .cls-2 {
        stroke: #ed2b91;
      }
    </style>
  </defs>
  <!-- Generator: Adobe Illustrator 28.7.3, SVG Export Plug-In . SVG Version: 1.2.0 Build 164)  -->
  <g>
    <g id="Layer_1">
      <g>
        <path class="cls-3" d="M1.97,9.64c-.32,0-.61-.09-.86-.26-.25-.18-.45-.42-.59-.73-.14-.31-.21-.67-.21-1.08V.73c0-.14.04-.25.13-.33s.19-.13.33-.13.25.04.33.13.13.19.13.33v6.84c0,.34.07.62.21.84.14.22.32.32.53.32h.3c.12,0,.22.04.29.13s.11.19.11.33-.05.25-.15.33-.23.13-.39.13h-.16Z"/>
        <path class="cls-3" d="M6.91,9.7c-.65,0-1.22-.14-1.72-.43-.5-.28-.89-.68-1.18-1.18-.28-.5-.43-1.08-.43-1.73s.13-1.23.4-1.73.64-.89,1.11-1.18c.47-.29,1.02-.43,1.63-.43s1.14.14,1.59.41c.45.28.8.66,1.05,1.15.25.49.37,1.04.37,1.67,0,.13-.04.23-.12.31-.08.08-.18.11-.31.11h-5.1v-.77h5.2l-.52.37c0-.46-.08-.88-.25-1.25-.18-.37-.43-.66-.75-.86-.32-.21-.71-.31-1.16-.31s-.86.11-1.2.32c-.34.22-.61.51-.8.89-.19.38-.28.81-.28,1.3s.11.92.32,1.3.5.67.87.89c.37.22.79.32,1.27.32.29,0,.58-.05.87-.15s.53-.23.7-.38c.09-.07.19-.11.3-.11.11,0,.21.03.29.09.1.1.16.2.16.31,0,.11-.04.21-.14.29-.26.22-.6.41-1.01.56-.41.15-.8.22-1.18.22Z"/>
        <path class="cls-3" d="M14.29,9.7c-.63,0-1.2-.15-1.71-.44s-.9-.69-1.19-1.19c-.29-.5-.44-1.08-.44-1.72s.14-1.2.43-1.7c.28-.5.67-.9,1.16-1.19.49-.29,1.04-.44,1.65-.44.54,0,1.02.11,1.45.34.43.23.78.53,1.04.91V.74c0-.14.04-.26.13-.34s.2-.13.34-.13.25.04.34.13.13.2.13.34v5.66c-.02.62-.17,1.19-.46,1.69-.29.5-.69.89-1.19,1.18s-1.06.43-1.69.43ZM14.29,8.86c.46,0,.88-.11,1.24-.33.37-.22.65-.52.87-.89.21-.38.32-.8.32-1.28s-.11-.9-.32-1.28c-.21-.38-.5-.68-.87-.89-.36-.22-.78-.32-1.24-.32s-.87.11-1.24.32c-.37.22-.66.51-.88.89-.21.38-.32.81-.32,1.28s.11.91.32,1.28c.22.38.51.67.88.89.37.22.78.33,1.24.33Z"/>
        <path class="cls-3" d="M21.2,9.64c-.32,0-.61-.09-.86-.26-.25-.18-.45-.42-.59-.73s-.21-.67-.21-1.08V.73c0-.14.04-.25.13-.33s.19-.13.33-.13.25.04.33.13.13.19.13.33v6.84c0,.34.07.62.21.84.14.22.32.32.53.32h.3c.12,0,.22.04.29.13s.11.19.11.33-.05.25-.15.33c-.1.08-.23.13-.39.13h-.16Z"/>
      </g>
      <circle class="cls-2" cx="27.44" cy="6.3" r="3.04"/>
      <circle class="cls-1" cx="25.51" cy="5.61" r="3.04"/>
      <g>
        <path class="cls-3" d="M35.52,9.7c-.62,0-1.19-.14-1.69-.43s-.9-.68-1.19-1.18c-.29-.5-.44-1.06-.45-1.69V.74c0-.14.04-.26.13-.34s.2-.13.34-.13c.14,0,.25.04.33.13s.13.2.13.34v3.53c.26-.38.61-.68,1.05-.91.44-.23.92-.34,1.46-.34.62,0,1.17.15,1.66.44s.87.69,1.16,1.19c.28.5.43,1.07.43,1.7s-.15,1.21-.44,1.72c-.29.5-.69.9-1.19,1.19s-1.08.44-1.72.44ZM35.52,8.86c.46,0,.88-.11,1.25-.33.37-.22.66-.52.87-.89s.32-.8.32-1.28-.11-.9-.32-1.28-.5-.68-.87-.89c-.37-.22-.78-.32-1.25-.32s-.87.11-1.24.32c-.37.22-.66.51-.86.89-.21.38-.31.81-.31,1.28s.1.91.31,1.28c.21.38.5.67.86.89.37.22.78.33,1.24.33Z"/>
        <path class="cls-3" d="M43.66,9.7c-.65,0-1.22-.14-1.72-.43-.5-.28-.89-.68-1.18-1.18-.28-.5-.43-1.08-.43-1.73s.13-1.23.4-1.73.64-.89,1.11-1.18c.47-.29,1.02-.43,1.63-.43s1.14.14,1.59.41.8.66,1.05,1.15.37,1.04.37,1.67c0,.13-.04.23-.12.31s-.18.11-.31.11h-5.1v-.77h5.2l-.52.37c0-.46-.08-.88-.25-1.25-.18-.37-.43-.66-.75-.86s-.71-.31-1.16-.31-.86.11-1.2.32c-.34.22-.61.51-.8.89-.19.38-.28.81-.28,1.3s.11.92.32,1.3.5.67.87.89c.37.22.79.32,1.27.32.29,0,.58-.05.87-.15s.53-.23.7-.38c.09-.07.19-.11.3-.11.11,0,.21.03.29.09.1.1.16.2.16.31,0,.11-.04.21-.14.29-.26.22-.6.41-1.01.56-.41.15-.8.22-1.18.22Z"/>
      </g>
    </g>
  </g>
</svg>